<svg width="909" height="1013" viewBox="0 0 909 1013" fill="none" xmlns="http://www.w3.org/2000/svg">
<g opacity="0.07">
<path fill-rule="evenodd" clip-rule="evenodd" d="M419.864 342.078H279.466L236.076 475.469L349.66 557.922L463.244 475.469L419.864 342.078ZM220.598 480.502L269.922 328.953H429.41L478.724 480.502L349.661 574.173L220.598 480.502Z" fill="#717BBC"/>
<path fill-rule="evenodd" clip-rule="evenodd" d="M430.451 326.906H268.88L218.927 480.32L349.66 575.121L480.394 480.32L430.451 326.906ZM204.009 485.157L259.652 314.234H439.668L495.322 485.157L349.66 590.798L204.009 485.157Z" fill="#717BBC"/>
<path fill-rule="evenodd" clip-rule="evenodd" d="M439.619 311.656H257.885L201.709 485.097L348.747 592.277L495.785 485.097L439.619 311.656ZM187.412 489.741L249.046 299.445H448.446L510.069 489.741L348.746 607.353L187.412 489.741Z" fill="#717BBC"/>
<path fill-rule="evenodd" clip-rule="evenodd" d="M450.185 296.453H247.28L184.59 489.902L348.738 609.446L512.886 489.902L450.185 296.453ZM170.816 494.38L238.787 284.719H458.68L526.661 494.38L348.739 623.97L170.816 494.38Z" fill="#717BBC"/>
<path fill-rule="evenodd" clip-rule="evenodd" d="M460.773 281.289H236.703L167.452 494.738L348.733 626.655L530.024 494.738L460.773 281.289ZM154.223 499.037L228.534 270.008H468.954L543.255 499.037L348.734 640.603L154.223 499.037Z" fill="#717BBC"/>
<path fill-rule="evenodd" clip-rule="evenodd" d="M471.369 266.008H226.115L150.312 499.487L348.731 643.784L547.161 499.487L471.369 266.008ZM137.628 503.608L218.272 255.211H479.204L559.848 503.608L348.733 657.15L137.628 503.608Z" fill="#717BBC"/>
<path fill-rule="evenodd" clip-rule="evenodd" d="M481.944 252.625H215.526L133.17 506.099L348.73 662.769L564.301 506.099L481.944 252.625ZM121.032 510.055L208.008 242.281H489.453L576.44 510.055L348.731 675.564L121.032 510.055Z" fill="#717BBC"/>
<path fill-rule="evenodd" clip-rule="evenodd" d="M492.542 237.445H204.945L116.052 510.963L348.738 679.988L581.436 510.963L492.542 237.445ZM104.44 514.712L197.764 227.555H499.712L593.036 514.712L348.738 692.181L104.44 514.712Z" fill="#717BBC"/>
<path fill-rule="evenodd" clip-rule="evenodd" d="M503.126 222.227H194.354L98.9102 515.743L348.74 697.136L598.57 515.743L503.126 222.227ZM87.8477 519.339L187.51 212.812H509.969L609.631 519.339L348.739 708.783L87.8477 519.339Z" fill="#717BBC"/>
<path fill-rule="evenodd" clip-rule="evenodd" d="M513.715 207.016H183.754L81.7666 520.537L348.74 714.312L615.713 520.537L513.715 207.016ZM71.2539 523.964L177.259 198.07H520.21L626.225 523.964L348.74 725.385L71.2539 523.964Z" fill="#717BBC"/>
<path fill-rule="evenodd" clip-rule="evenodd" d="M524.319 191.789H173.179L64.6416 525.35L348.739 731.505L632.857 525.35L524.319 191.789ZM54.6621 528.594L167.017 183.32H530.479L642.823 528.594L348.743 741.981L54.6621 528.594Z" fill="#717BBC"/>
<path fill-rule="evenodd" clip-rule="evenodd" d="M534.891 176.586H162.579L47.5029 530.145L348.73 748.668L649.967 530.145L534.891 176.586ZM38.0625 533.196L156.743 168.562H540.731L659.412 533.196L348.732 758.568L38.0625 533.196Z" fill="#717BBC"/>
<path fill-rule="evenodd" clip-rule="evenodd" d="M545.495 161.352H151.992L30.3613 534.943L348.744 765.83L667.126 534.943L545.495 161.352ZM23.6955 539.417L21.4727 537.803L146.496 153.797H551.007L676.01 537.803L348.746 775.146L23.6955 539.417Z" fill="#717BBC"/>
<path fill-rule="evenodd" clip-rule="evenodd" d="M556.071 146.148H141.401L13.2188 539.726L348.736 782.992L684.253 539.726L556.071 146.148ZM4.87793 542.442L136.23 139.055H561.23L692.603 542.442L348.735 791.748L4.87793 542.442Z" fill="#717BBC"/>
<path fill-rule="evenodd" clip-rule="evenodd" d="M566.673 132.742H130.806L-3.91797 546.362L348.74 801.982L701.398 546.362L566.673 132.742ZM-11.7148 548.89L125.978 126.141H571.505L709.198 548.89L348.741 810.178L-11.7148 548.89Z" fill="#717BBC"/>
<path fill-rule="evenodd" clip-rule="evenodd" d="M577.622 117.547H121.7L-19.2178 551.181L349.656 819.171L718.54 551.181L577.622 117.547ZM-26.4678 553.524L117.231 111.398H582.09L725.789 553.524L349.655 826.78L-26.4678 553.524Z" fill="#717BBC"/>
<path fill-rule="evenodd" clip-rule="evenodd" d="M588.213 102.383H111.101L-36.3711 556.003L349.657 836.371L735.696 556.003L588.213 102.383ZM-41.3937 559.396L-43.0605 558.176L106.981 96.6797H592.353L742.384 558.176L349.656 843.405L-41.3937 559.396Z" fill="#717BBC"/>
<path fill-rule="evenodd" clip-rule="evenodd" d="M598.8 87.1172H100.527L-53.4824 560.764L349.664 853.501L752.821 560.764L598.8 87.1172ZM-59.6543 562.739L96.7237 81.875H602.611L758.978 562.739L349.662 859.944L-59.6543 562.739Z" fill="#717BBC"/>
<path fill-rule="evenodd" clip-rule="evenodd" d="M769.965 565.559L609.401 71.8984H89.9366L-70.6387 565.559L349.663 870.667L769.965 565.559ZM-74.846 568.403L-76.248 567.385L85.9204 68.7779L86.4621 67.1328H612.862L775.572 567.385L351.064 875.538L349.662 876.546L-74.846 568.403Z" fill="#717BBC"/>
<path fill-rule="evenodd" clip-rule="evenodd" d="M619.99 56.6953H79.3304L-87.7765 570.359L349.665 887.838L787.096 570.359L619.99 56.6953ZM-92.8408 572.008L76.2101 52.3906H623.116L792.167 572.008L349.668 893.148L-92.8408 572.008Z" fill="#717BBC"/>
<path fill-rule="evenodd" clip-rule="evenodd" d="M630.576 41.4922H68.7417L-104.929 575.191L349.664 905.03L804.246 575.191L630.576 41.4922ZM-108.309 577.484L-109.436 576.677L65.51 38.9984L65.9456 37.6719H633.379L808.325 575.351L808.76 576.677L349.662 909.773L-108.309 577.484Z" fill="#717BBC"/>
<path fill-rule="evenodd" clip-rule="evenodd" d="M641.178 28.1172H58.1484L-122.064 581.819L349.658 924.028L821.391 581.819L641.178 28.1172ZM-125.042 583.822L-126.03 583.1L55.3091 25.9173L55.7023 24.75H643.621L824.981 581.933L825.353 583.1L349.656 928.195L-125.042 583.822Z" fill="#717BBC"/>
<path fill-rule="evenodd" clip-rule="evenodd" d="M838.504 586.653L651.764 12.9609H47.5717L-139.18 586.653L349.662 941.225L838.504 586.653ZM-141.753 588.374L-142.625 587.748L45.1254 11.0421L45.4549 10.0234H653.877L841.617 586.74L841.946 587.748L350.521 944.176L349.661 944.813L-141.753 588.374Z" fill="#717BBC"/>
<path fill-rule="evenodd" clip-rule="evenodd" d="M662.354 -2.34375H36.9657L-156.339 591.375L349.655 958.325L855.648 591.375L662.354 -2.34375ZM-158.506 592.853L-159.218 592.322L34.916 -3.92176L35.1817 -4.78125H664.131L858.276 591.484L858.541 592.322L349.656 961.352L-158.506 592.853Z" fill="#717BBC"/>
<path fill-rule="evenodd" clip-rule="evenodd" d="M872.792 596.22L672.945 -17.5156H26.3813L-173.477 596.22L349.658 975.516L872.792 596.22ZM-175.22 597.39L-175.815 596.955L24.7122 -18.8287L24.9355 -19.5078H674.391L874.908 596.276L875.131 596.955L350.253 977.535L349.658 977.97L-175.22 597.39Z" fill="#717BBC"/>
<path fill-rule="evenodd" clip-rule="evenodd" d="M889.922 602.161L683.534 -32.7266H15.7901L-190.608 602.161L349.651 994.537L889.922 602.161ZM-191.948 603.051L-192.405 602.732L14.6844 -34.25H684.64L891.729 602.732L350.098 996.086L349.651 996.415L-191.948 603.051Z" fill="#717BBC"/>
<path fill-rule="evenodd" clip-rule="evenodd" d="M4.42181 -49L4.30486 -48.628L-209 607.345L-208.681 607.579L349.661 1013.01L349.97 1012.78L908.322 607.345L908.216 606.984L694.911 -49H4.42181ZM-207.754 606.936L5.21068 -47.9531H694.126L907.08 606.936L349.663 1011.68L-207.754 606.936Z" fill="#717BBC"/>
</g>
</svg>
