<svg width="60" height="34" viewBox="0 0 60 34" fill="none" xmlns="http://www.w3.org/2000/svg">
<g clip-path="url(#clip0_788_85463)">
<path d="M59.9742 7.89304C59.6832 12.0661 59.3892 16.2361 59.0982 20.4092C58.972 21.4253 58.6394 22.1911 58.3142 22.7358C56.0202 26.5999 49.9622 26.5032 49.5302 26.49C40.6184 26.8824 31.7052 27.2749 22.7934 27.6658C19.6293 29.0539 17.7823 31.0071 18.0302 32.6251C18.0866 32.9882 18.2678 33.47 18.8142 34C17.5462 33.6222 15.6174 32.8901 13.6382 31.4347C12.143 30.3351 11.0829 29.1681 10.3598 28.2134C8.61809 28.2896 6.87494 28.3657 5.13328 28.4433C4.22755 28.3027 2.61209 27.9133 1.4688 26.6496C0.459136 25.5339 0.269082 24.2366 0.181479 23.4225C-0.356017 18.3783 0.466561 7.26929 0.518529 6.606C0.488833 6.32341 0.245326 3.46965 2.64327 1.47539C4.88383 -0.385629 7.60695 0.0184942 7.95736 0.0770628C33.4929 0.834062 52.1701 1.65109 55.6089 2.146C56.6186 2.29096 57.8124 2.62626 58.7047 3.52236C59.9668 4.78891 60.0693 6.61918 59.9727 7.89451L59.9742 7.89304Z" fill="#E6B032"/>
<path d="M5.93831 7.25781H14.399C14.5948 7.25781 14.7543 7.41443 14.7543 7.60682V8.92885C14.7543 9.12124 14.5948 9.27786 14.399 9.27786H8.49446C8.29861 9.27786 8.13916 9.43448 8.13916 9.62687V12.546C8.13916 12.7383 8.29861 12.895 8.49446 12.895H14.296C14.4919 12.895 14.6513 13.0516 14.6513 13.244V14.5056C14.6513 14.698 14.4919 14.8546 14.296 14.8546H8.49446C8.29861 14.8546 8.13916 15.0112 8.13916 15.2036V18.1535C8.13916 18.3459 8.29861 18.5025 8.49446 18.5025H14.399C14.5948 18.5025 14.7543 18.6591 14.7543 18.8515V20.1735C14.7543 20.3659 14.5948 20.5226 14.399 20.5226H5.93831C5.74245 20.5226 5.58301 20.3659 5.58301 20.1735V7.60682C5.58301 7.41443 5.74245 7.25781 5.93831 7.25781Z" fill="white"/>
<path d="M21.638 7.25781H23.7241C23.8649 7.25781 23.9908 7.34169 24.0452 7.4712L29.3734 20.0378C29.4709 20.2685 29.3017 20.5226 29.0522 20.5226H27.1206C26.9785 20.5226 26.8501 20.4362 26.797 20.3042L25.7768 17.7768C25.7237 17.6449 25.5952 17.5585 25.4532 17.5585H19.92C19.7779 17.5585 19.6495 17.6449 19.5964 17.7756L18.5663 20.3055C18.5132 20.4374 18.3848 20.5226 18.2427 20.5226H16.2999C16.0492 20.5226 15.88 20.2672 15.9788 20.0378L21.3169 7.4712C21.3712 7.34169 21.4984 7.25905 21.638 7.25905V7.25781ZM21.0242 15.5381H24.3601C24.6059 15.5381 24.7751 15.2902 24.685 15.062L22.7026 10.022H22.6693L20.6981 15.0632C20.6092 15.2914 20.7771 15.5393 21.0229 15.5393L21.0242 15.5381Z" fill="white"/>
<path d="M36.6613 7.25781C37.5348 7.25781 38.297 7.34348 38.9466 7.51483C39.5962 7.68617 40.1109 7.86703 40.492 8.05741C40.6343 8.1288 40.7555 8.19068 40.8545 8.24541C41.0339 8.34179 41.0871 8.5643 40.9721 8.7285L40.1146 9.94098C40.0107 10.0885 39.8053 10.1326 39.6469 10.0409C39.5553 9.98739 39.4465 9.9279 39.3215 9.86245C39.0344 9.71015 38.6843 9.57331 38.2747 9.45075C37.8639 9.3282 37.4123 9.26632 36.9199 9.26632C36.196 9.26632 35.617 9.38888 35.1839 9.63519C34.7509 9.8803 34.5343 10.2301 34.5343 10.6823C34.5343 10.9928 34.6482 11.2677 34.8758 11.5057C35.1035 11.7448 35.4363 11.9662 35.8731 12.1696C36.3099 12.3731 36.8382 12.5849 37.4581 12.805C37.9877 12.9859 38.4999 13.1965 38.9924 13.4357C39.4848 13.6748 39.9278 13.9556 40.32 14.2793C40.7122 14.6029 41.024 14.9777 41.2554 15.4037C41.4868 15.8297 41.6031 16.3211 41.6031 16.8768C41.6031 17.4646 41.4608 17.9869 41.1775 18.4427C40.8941 18.8984 40.5068 19.2815 40.0181 19.5909C39.5294 19.9014 38.9651 20.1335 38.3267 20.2893C37.6882 20.444 37.0102 20.5226 36.2938 20.5226C35.3373 20.5226 34.4799 20.4238 33.7177 20.2275C32.9555 20.0299 32.3418 19.8217 31.8753 19.6028C31.6811 19.5112 31.5215 19.4338 31.3953 19.3696C31.2109 19.2756 31.1528 19.0495 31.2691 18.8829L32.1847 17.5836C32.2874 17.4384 32.4878 17.392 32.6462 17.4789C32.7142 17.5157 32.791 17.5562 32.8788 17.6014C33.125 17.7275 33.4294 17.8596 33.7919 17.9988C34.1545 18.138 34.5517 18.2547 34.9847 18.3475C35.4178 18.4415 35.862 18.4879 36.3173 18.4879C37.1834 18.4879 37.8392 18.3284 38.2834 18.0083C38.7276 17.6883 38.9503 17.2766 38.9503 16.7721C38.9503 16.3842 38.808 16.0486 38.5247 15.7642C38.2413 15.4799 37.8528 15.2181 37.3604 14.9789C36.8679 14.7398 36.2925 14.5042 35.6355 14.2709C34.9785 14.0258 34.3685 13.7426 33.8043 13.4226C33.2401 13.1025 32.7872 12.7122 32.4433 12.2493C32.0993 11.7877 31.9285 11.2237 31.9285 10.5573C31.9285 9.89101 32.1451 9.32106 32.5781 8.82726C33.0112 8.33227 33.5878 7.94794 34.3091 7.67308C35.0293 7.39822 35.8149 7.26138 36.6662 7.26138L36.6613 7.25781Z" fill="white"/>
<path d="M46.738 15.6676L42.2347 7.78451C42.1022 7.55138 42.2645 7.25781 42.5259 7.25781H44.6946C44.8175 7.25781 44.9309 7.32689 44.9906 7.43913L47.7095 12.5667C47.8372 12.8084 48.1738 12.8084 48.3015 12.5667L51.0109 7.43913C51.0706 7.32689 51.184 7.25781 51.3069 7.25781H53.466C53.7274 7.25781 53.8898 7.55138 53.7573 7.78327L49.2731 15.6676C49.242 15.7207 49.2265 15.7823 49.2265 15.844V20.1735C49.2265 20.3659 49.0749 20.5226 48.8888 20.5226H47.1223C46.9361 20.5226 46.7845 20.3659 46.7845 20.1735V15.844C46.7845 15.7811 46.7678 15.7207 46.738 15.6664V15.6676Z" fill="white"/>
</g>
<defs>
<clipPath id="clip0_788_85463">
<rect width="60" height="34" fill="white"/>
</clipPath>
</defs>
</svg>
