<svg width="50" height="50" viewBox="0 0 34 34" fill="none" xmlns="http://www.w3.org/2000/svg">
<g clip-path="url(#clip0_681_31096)">
<path d="M45.8649 0H4.13511C1.85135 0 0 1.85135 0 4.13511V45.8649C0 48.1487 1.85135 50 4.13511 50H45.8649C48.1487 50 50 48.1487 50 45.8649V4.13511C50 1.85135 48.1487 0 45.8649 0Z" fill="#3D4798"/>
<path d="M18.7019 34.6598H11.8916C11.7529 34.6598 11.6401 34.7726 11.6401 34.9113V36.9013C11.6401 37.0401 11.7529 37.1528 11.8916 37.1528H15.304C15.3271 37.1528 15.3416 37.1654 15.3483 37.1731C15.3551 37.1808 15.3657 37.1972 15.3628 37.2212C15.3165 37.5643 15.2153 37.8881 15.0631 38.184C14.8857 38.528 14.6429 38.8296 14.3403 39.0811C14.0368 39.3336 13.6706 39.5331 13.2533 39.6728C12.8351 39.8135 12.3638 39.8848 11.854 39.8848C11.2778 39.8848 10.7429 39.7702 10.263 39.5447C9.78311 39.3182 9.36199 39.0021 9.01218 38.6041C8.6614 38.2052 8.38772 37.7397 8.19884 37.2203C8.009 36.6999 7.91359 36.1362 7.91359 35.5425C7.91359 34.9489 8.00996 34.3929 8.19884 33.8696C8.38772 33.3473 8.6614 32.8818 9.01218 32.4867C9.36199 32.0926 9.78311 31.7775 10.263 31.551C10.742 31.3255 11.2778 31.2108 11.854 31.2108C12.6577 31.2108 13.3188 31.3747 13.8199 31.6985C14.2863 32.0001 14.6708 32.3595 14.9638 32.7681C15.012 32.8346 15.0891 32.8751 15.17 32.8751C15.2076 32.8751 15.2433 32.8674 15.277 32.851L17.8288 31.6368C17.8943 31.6059 17.9435 31.5481 17.9627 31.4778C17.982 31.4074 17.9705 31.3323 17.93 31.2706C17.7189 30.9497 17.4616 30.622 17.1639 30.2973C16.8169 29.9186 16.3939 29.5678 15.9053 29.2536C15.4158 28.9395 14.8279 28.6841 14.1572 28.4952C13.4875 28.3063 12.7127 28.2109 11.8531 28.2109C10.7709 28.2109 9.77444 28.4008 8.89075 28.7747C8.00707 29.1486 7.23517 29.6786 6.59626 30.3493C5.95831 31.0191 5.46009 31.8074 5.11413 32.6901C4.76914 33.5728 4.59375 34.5326 4.59375 35.5435C4.59375 36.5544 4.76914 37.5248 5.11413 38.4075C5.45913 39.2912 5.95831 40.0785 6.59626 40.7483C7.23421 41.419 8.00611 41.95 8.88979 42.3277C9.77348 42.7055 10.7699 42.8973 11.8521 42.8973C12.9343 42.8973 13.8681 42.7093 14.7344 42.3383C15.6008 41.9673 16.3563 41.4431 16.9808 40.7791C17.6043 40.1161 18.0938 39.3355 18.4359 38.4596C18.778 37.5836 18.9515 36.6305 18.9515 35.6273V34.9133C18.9515 34.7745 18.8387 34.6617 18.7 34.6617L18.7019 34.6598Z" fill="white"/>
<path d="M28.7461 28.4609H19.2867C19.1479 28.4609 19.0352 28.5737 19.0352 28.7125V31.0416C19.0352 31.1804 19.1479 31.2932 19.2867 31.2932H22.3569C22.3887 31.2932 22.4157 31.3192 22.4157 31.3519V42.3898C22.4157 42.5286 22.5285 42.6413 22.6672 42.6413H25.3665C25.5052 42.6413 25.618 42.5286 25.618 42.3898V31.3519C25.618 31.3201 25.644 31.2932 25.6768 31.2932H28.747C28.8858 31.2932 28.9985 31.1804 28.9985 31.0416V28.7125C28.9985 28.5737 28.8858 28.4609 28.747 28.4609H28.7461Z" fill="white"/>
<path d="M44.2785 28.4609H40.3515C40.2407 28.4609 40.1443 28.5323 40.1116 28.6383L37.2129 38.0552C37.21 38.0649 37.2071 38.0745 37.2051 38.0851L37.1724 38.2653C37.1647 38.3087 37.13 38.3135 37.1146 38.3135C37.0991 38.3135 37.0644 38.3087 37.0567 38.2653L37.0269 38.087C37.0249 38.0764 37.022 38.0658 37.0192 38.0552L34.1204 28.6383C34.0877 28.5323 33.9913 28.4609 33.8805 28.4609H29.9429C29.8042 28.4609 29.6914 28.5737 29.6914 28.7125V42.3889C29.6914 42.5276 29.8042 42.6404 29.9429 42.6404H32.6316C32.7703 42.6404 32.8831 42.5276 32.8831 42.3889V34.083C32.8831 34.083 32.8831 34.0695 32.8831 34.0676C32.8821 34.0483 32.886 34.0348 32.8956 34.0242C32.9062 34.0126 32.9245 34.0059 32.9428 34.0059C32.9727 34.0059 32.992 34.0213 32.9978 34.0531L33.071 34.4164C33.0729 34.427 33.0758 34.4386 33.0797 34.4492L35.5091 41.3924C35.5447 41.4926 35.6392 41.5601 35.7461 41.5601H38.4724C38.5793 41.5601 38.6738 41.4926 38.7094 41.3915L41.1379 34.4492C41.1417 34.4386 41.1446 34.427 41.1466 34.4164L41.2352 33.9808C41.242 33.95 41.2603 33.9336 41.2901 33.9336C41.3084 33.9336 41.3268 33.9404 41.3374 33.9519C41.347 33.9625 41.3518 33.976 41.3499 33.9953L41.346 34.0705C41.346 34.0705 41.346 34.082 41.346 34.084V42.3908C41.346 42.5296 41.4588 42.6423 41.5975 42.6423H44.2756C44.4144 42.6423 44.5271 42.5296 44.5271 42.3908V28.7144C44.5271 28.5756 44.4144 28.4629 44.2756 28.4629L44.2785 28.4609Z" fill="white"/>
<path d="M45.291 12.3979C45.1021 15.1444 44.9113 17.8889 44.7224 20.6354C44.6405 21.3041 44.4246 21.8081 44.2136 22.1666C42.7247 24.7098 38.7929 24.6462 38.5125 24.6375C32.7286 24.8957 26.9437 25.154 21.1597 25.4113C19.1061 26.3249 17.9073 27.6104 18.0683 28.6753C18.1049 28.9142 18.2225 29.2313 18.5771 29.5801C17.7541 29.3315 16.5023 28.8497 15.2177 27.8918C14.2473 27.1681 13.5593 26.4 13.09 25.7717C11.9596 25.8218 10.8282 25.8719 9.69783 25.923C9.11 25.8305 8.06152 25.5742 7.3195 24.7425C6.6642 24.0082 6.54085 23.1544 6.484 22.6186C6.13515 19.2987 6.66902 11.9874 6.70275 11.5508C6.68348 11.3649 6.52543 9.48667 8.08176 8.17415C9.53594 6.94932 11.3033 7.2153 11.5307 7.25384C28.1039 7.75206 40.2259 8.28979 42.4578 8.61551C43.1131 8.71091 43.8879 8.93159 44.467 9.52136C45.2862 10.3549 45.3526 11.5595 45.29 12.3989L45.291 12.3979Z" fill="#E6B032"/>
<path d="M9.06373 11.6719H15.5579C15.7082 11.6719 15.8306 11.7943 15.8306 11.9446V12.9776C15.8306 13.128 15.7082 13.2504 15.5579 13.2504H11.0258C10.8754 13.2504 10.753 13.3728 10.753 13.5231V15.8041C10.753 15.9544 10.8754 16.0768 11.0258 16.0768H15.4789C15.6292 16.0768 15.7516 16.1992 15.7516 16.3495V17.3354C15.7516 17.4857 15.6292 17.6081 15.4789 17.6081H11.0258C10.8754 17.6081 10.753 17.7305 10.753 17.8808V20.1859C10.753 20.3362 10.8754 20.4586 11.0258 20.4586H15.5579C15.7082 20.4586 15.8306 20.581 15.8306 20.7313V21.7644C15.8306 21.9147 15.7082 22.0371 15.5579 22.0371H9.06373C8.9134 22.0371 8.79102 21.9147 8.79102 21.7644V11.9446C8.79102 11.7943 8.9134 11.6719 9.06373 11.6719Z" fill="#3D4798"/>
<path d="M20.7054 11.6719H22.3331C22.4429 11.6719 22.5412 11.7374 22.5836 11.8386L26.7409 21.6565C26.817 21.8367 26.685 22.0352 26.4903 22.0352H24.9832C24.8723 22.0352 24.7721 21.9677 24.7307 21.8646L23.9347 19.89C23.8933 19.7869 23.793 19.7195 23.6822 19.7195H19.365C19.2542 19.7195 19.1539 19.7869 19.1125 19.8891L18.3088 21.8656C18.2674 21.9687 18.1671 22.0352 18.0563 22.0352H16.5405C16.3448 22.0352 16.2128 21.8357 16.2899 21.6565L20.4549 11.8386C20.4973 11.7374 20.5965 11.6728 20.7054 11.6728V11.6719ZM20.2265 18.141H22.8294C23.0211 18.141 23.1532 17.9473 23.0828 17.769L21.5361 13.8315H21.5101L19.9721 17.77C19.9027 17.9483 20.0338 18.142 20.2255 18.142L20.2265 18.141Z" fill="#3D4798"/>
<path d="M31.1859 11.4844C31.8663 11.4844 32.4599 11.5538 32.9658 11.6925C33.4717 11.8313 33.8726 11.9778 34.1694 12.132C34.2803 12.1898 34.3747 12.2399 34.4518 12.2842C34.5915 12.3623 34.633 12.5425 34.5433 12.6755L33.8755 13.6575C33.7946 13.7769 33.6346 13.8126 33.5113 13.7384C33.4399 13.695 33.3551 13.6468 33.2578 13.5938C33.0342 13.4705 32.7615 13.3597 32.4425 13.2604C32.1226 13.1612 31.7709 13.111 31.3873 13.111C30.8236 13.111 30.3726 13.2103 30.0353 13.4098C29.698 13.6083 29.5294 13.8916 29.5294 14.2578C29.5294 14.5093 29.618 14.7319 29.7953 14.9247C29.9727 15.1184 30.2319 15.2976 30.5721 15.4624C30.9122 15.6272 31.3237 15.7987 31.8065 15.977C32.219 16.1235 32.6179 16.2941 33.0015 16.4877C33.385 16.6814 33.73 16.9089 34.0355 17.171C34.341 17.4331 34.5838 17.7367 34.764 18.0817C34.9442 18.4267 35.0348 18.8246 35.0348 19.2747C35.0348 19.7507 34.924 20.1738 34.7033 20.5429C34.4826 20.912 34.181 21.2223 33.8004 21.4728C33.4197 21.7243 32.9803 21.9122 32.483 22.0385C31.9858 22.1638 31.4577 22.2274 30.8997 22.2274C30.1548 22.2274 29.487 22.1474 28.8933 21.9884C28.2997 21.8284 27.8217 21.6598 27.4584 21.4824C27.3071 21.4082 27.1828 21.3456 27.0845 21.2936C26.941 21.2174 26.8957 21.0343 26.9862 20.8994L27.6994 19.8471C27.7793 19.7295 27.9355 19.6919 28.0588 19.7623C28.1118 19.7922 28.1716 19.8249 28.24 19.8616C28.4317 19.9637 28.6688 20.0707 28.9512 20.1834C29.2335 20.2962 29.5429 20.3906 29.8801 20.4658C30.2174 20.5419 30.5634 20.5795 30.918 20.5795C31.5926 20.5795 32.1033 20.4504 32.4493 20.1911C32.7952 19.9319 32.9687 19.5985 32.9687 19.1899C32.9687 18.8757 32.8579 18.604 32.6372 18.3736C32.4165 18.1433 32.1139 17.9313 31.7304 17.7376C31.3469 17.5439 30.8987 17.3531 30.387 17.1642C29.8753 16.9657 29.4002 16.7364 28.9608 16.4771C28.5214 16.2179 28.1687 15.9018 27.9008 15.527C27.6329 15.1531 27.4999 14.6963 27.4999 14.1566C27.4999 13.617 27.6685 13.1554 28.0058 12.7555C28.3431 12.3546 28.7922 12.0433 29.354 11.8207C29.9148 11.5981 30.5268 11.4873 31.1898 11.4873L31.1859 11.4844Z" fill="#3D4798"/>
<path d="M38.4875 18.2422L34.8516 12.0834C34.7446 11.9012 34.8757 11.6719 35.0867 11.6719H36.8377C36.9369 11.6719 37.0285 11.7258 37.0767 11.8135L39.2719 15.8195C39.375 16.0084 39.6468 16.0084 39.7499 15.8195L41.9374 11.8135C41.9856 11.7258 42.0772 11.6719 42.1764 11.6719H43.9197C44.1307 11.6719 44.2618 11.9012 44.1548 12.0824L40.5343 18.2422C40.5093 18.2836 40.4967 18.3318 40.4967 18.38V21.7625C40.4967 21.9128 40.3744 22.0352 40.224 22.0352H38.7978C38.6475 22.0352 38.5251 21.9128 38.5251 21.7625V18.38C38.5251 18.3308 38.5116 18.2836 38.4875 18.2412V18.2422Z" fill="#3D4798"/>
</g>
<defs>
<clipPath id="clip0_681_31096">
<rect width="50" height="50" fill="white"/>
</clipPath>
</defs>
</svg>
