<svg width="126" height="126" viewBox="0 0 126 126" fill="none" xmlns="http://www.w3.org/2000/svg">
<g clip-path="url(#clip0_821_34167)">
<path d="M115.58 0H10.4205C4.6654 0 0 4.6654 0 10.4205V115.58C0 121.335 4.6654 126 10.4205 126H115.58C121.335 126 126 121.335 126 115.58V10.4205C126 4.6654 121.335 0 115.58 0Z" fill="#3D4798"/>
<path d="M47.1287 87.3449H29.9668C29.6171 87.3449 29.333 87.6291 29.333 87.9787V92.9935C29.333 93.3432 29.6171 93.6273 29.9668 93.6273H38.5659C38.6242 93.6273 38.6607 93.6589 38.6777 93.6783C38.6947 93.6977 38.7214 93.739 38.7141 93.7997C38.5975 94.6643 38.3425 95.4802 37.9588 96.2258C37.512 97.0927 36.9 97.8528 36.1375 98.4866C35.3725 99.1229 34.4497 99.6256 33.3982 99.9777C32.3443 100.332 31.1567 100.512 29.8721 100.512C28.4199 100.512 27.0721 100.223 25.8627 99.6547C24.6534 99.084 23.5921 98.2875 22.7106 97.2846C21.8266 96.2792 21.137 95.1062 20.661 93.7973C20.1826 92.4859 19.9422 91.0653 19.9422 89.5694C19.9422 88.0735 20.185 86.6722 20.661 85.3536C21.137 84.0374 21.8266 82.8644 22.7106 81.8688C23.5921 80.8755 24.6534 80.0814 25.8627 79.5108C27.0697 78.9425 28.4199 78.6535 29.8721 78.6535C31.8974 78.6535 33.5633 79.0663 34.8261 79.8823C36.0015 80.6424 36.9705 81.5482 37.7087 82.5779C37.8301 82.7454 38.0244 82.8474 38.2284 82.8474C38.3231 82.8474 38.413 82.828 38.4979 82.7867L44.9285 79.7269C45.0936 79.6492 45.2175 79.5035 45.266 79.3262C45.3146 79.1489 45.2855 78.9595 45.1835 78.8041C44.6516 77.9954 44.0032 77.1697 43.2528 76.3513C42.3786 75.397 41.3125 74.513 40.0813 73.7213C38.8476 72.9297 37.3663 72.2861 35.6761 71.8101C33.9883 71.3342 32.0358 71.0938 29.8697 71.0938C27.1425 71.0938 24.6315 71.5721 22.4046 72.5144C20.1777 73.4566 18.2325 74.7923 16.6225 76.4825C15.0149 78.1702 13.7593 80.1567 12.8875 82.3812C12.0181 84.6056 11.5762 87.0244 11.5762 89.5718C11.5762 92.1193 12.0181 94.5647 12.8875 96.7892C13.7569 99.016 15.0149 101 16.6225 102.688C18.2301 104.378 20.1753 105.716 22.4022 106.668C24.6291 107.62 27.1401 108.103 29.8672 108.103C32.5944 108.103 34.9476 107.63 37.1307 106.695C39.3139 105.76 41.2178 104.439 42.7914 102.766C44.3626 101.095 45.5963 99.1277 46.4584 96.9203C47.3205 94.7128 47.7576 92.3111 47.7576 89.7831V87.9836C47.7576 87.6339 47.4735 87.3498 47.1238 87.3498L47.1287 87.3449Z" fill="white"/>
<path d="M72.4402 71.7266H48.6026C48.2529 71.7266 47.9688 72.0107 47.9688 72.3604V78.23C47.9688 78.5796 48.2529 78.8638 48.6026 78.8638H56.3396C56.4197 78.8638 56.4877 78.9293 56.4877 79.0119V106.827C56.4877 107.177 56.7719 107.461 57.1216 107.461H63.9237C64.2733 107.461 64.5575 107.177 64.5575 106.827V79.0119C64.5575 78.9318 64.623 78.8638 64.7056 78.8638H72.4426C72.7923 78.8638 73.0765 78.5796 73.0765 78.23V72.3604C73.0765 72.0107 72.7923 71.7266 72.4426 71.7266H72.4402Z" fill="white"/>
<path d="M111.582 71.7266H101.686C101.407 71.7266 101.164 71.9063 101.082 72.1734L93.7768 95.9042C93.7695 95.9285 93.7622 95.9528 93.7574 95.9795L93.6748 96.4336C93.6554 96.5429 93.5679 96.555 93.5291 96.555C93.4902 96.555 93.4028 96.5429 93.3834 96.4336L93.3081 95.9843C93.3032 95.9576 93.296 95.9309 93.2887 95.9042L85.9839 72.1734C85.9013 71.9063 85.6585 71.7266 85.3792 71.7266H75.4566C75.1069 71.7266 74.8228 72.0107 74.8228 72.3604V106.825C74.8228 107.175 75.1069 107.459 75.4566 107.459H82.232C82.5816 107.459 82.8658 107.175 82.8658 106.825V85.8941C82.8658 85.8941 82.8658 85.8601 82.8658 85.8553C82.8634 85.8067 82.8731 85.7727 82.8973 85.746C82.9241 85.7169 82.9702 85.6999 83.0163 85.6999C83.0916 85.6999 83.1402 85.7387 83.1548 85.8189L83.3393 86.7344C83.3442 86.7611 83.3515 86.7902 83.3612 86.8169L89.4833 104.314C89.5732 104.566 89.8111 104.736 90.0807 104.736H96.9508C97.2203 104.736 97.4583 104.566 97.5482 104.311L103.668 86.8169C103.678 86.7902 103.685 86.7611 103.69 86.7344L103.913 85.6367C103.93 85.559 103.976 85.5177 104.052 85.5177C104.098 85.5177 104.144 85.5347 104.171 85.5639C104.195 85.5906 104.207 85.6246 104.202 85.6731L104.192 85.8626C104.192 85.8626 104.192 85.8917 104.192 85.8966V106.83C104.192 107.179 104.477 107.464 104.826 107.464H111.575C111.925 107.464 112.209 107.179 112.209 106.83V72.3652C112.209 72.0155 111.925 71.7314 111.575 71.7314L111.582 71.7266Z" fill="white"/>
<path d="M114.132 31.2315C113.656 38.1526 113.176 45.0688 112.7 51.9899C112.493 53.6752 111.949 54.9453 111.417 55.8487C107.665 62.2573 97.7574 62.0971 97.0507 62.0752C82.4752 62.726 67.8972 63.3769 53.3216 64.0252C48.1466 66.3274 45.1256 69.567 45.5312 72.2504C45.6235 72.8527 45.9197 73.6516 46.8134 74.5307C44.7395 73.9042 41.585 72.6899 38.3478 70.2761C35.9024 68.4523 34.1685 66.5168 32.9858 64.9335C30.1372 65.0598 27.2863 65.186 24.4377 65.3148C22.9563 65.0816 20.3142 64.4357 18.4443 62.3399C16.7929 60.4894 16.4821 58.3378 16.3388 56.9876C15.4597 48.6216 16.8051 30.197 16.8901 29.0969C16.8415 28.6282 16.4432 23.8952 20.3652 20.5876C24.0297 17.501 28.4835 18.1713 29.0566 18.2684C70.821 19.5239 101.368 20.879 106.993 21.6998C108.644 21.9403 110.597 22.4964 112.056 23.9826C114.12 26.0832 114.288 29.1187 114.13 31.2339L114.132 31.2315Z" fill="#E6B032"/>
<path d="M22.8396 29.418H39.2049C39.5837 29.418 39.8922 29.7264 39.8922 30.1052V32.7085C39.8922 33.0874 39.5837 33.3958 39.2049 33.3958H27.7839C27.4051 33.3958 27.0967 33.7042 27.0967 34.083V39.8312C27.0967 40.21 27.4051 40.5184 27.7839 40.5184H39.0058C39.3846 40.5184 39.693 40.8268 39.693 41.2057V43.69C39.693 44.0688 39.3846 44.3772 39.0058 44.3772H27.7839C27.4051 44.3772 27.0967 44.6856 27.0967 45.0645V50.8733C27.0967 51.2521 27.4051 51.5606 27.7839 51.5606H39.2049C39.5837 51.5606 39.8922 51.869 39.8922 52.2478V54.8511C39.8922 55.2299 39.5837 55.5384 39.2049 55.5384H22.8396C22.4608 55.5384 22.1523 55.2299 22.1523 54.8511V30.1052C22.1523 29.7264 22.4608 29.418 22.8396 29.418Z" fill="#3D4798"/>
<path d="M52.1751 29.418H56.2768C56.5536 29.418 56.8013 29.5831 56.9082 29.8381L67.3845 54.5791C67.5763 55.0332 67.2436 55.5335 66.7531 55.5335H62.955C62.6757 55.5335 62.4232 55.3635 62.3187 55.1037L60.3128 50.1278C60.2084 49.8679 59.9559 49.6979 59.6766 49.6979H48.7971C48.5179 49.6979 48.2653 49.8679 48.1609 50.1253L46.1356 55.1061C46.0311 55.3659 45.7786 55.5335 45.4993 55.5335H41.6794C41.1864 55.5335 40.8537 55.0308 41.048 54.5791L51.5437 29.8381C51.6506 29.5831 51.9007 29.4204 52.1751 29.4204V29.418ZM50.9682 45.7201H57.5274C58.0107 45.7201 58.3434 45.232 58.1661 44.7828L54.2684 34.8601H54.2029L50.3271 44.7852C50.1522 45.2344 50.4825 45.7226 50.9657 45.7226L50.9682 45.7201Z" fill="#3D4798"/>
<path d="M78.5868 28.9453C80.3013 28.9453 81.7972 29.1202 83.0722 29.4699C84.3471 29.8196 85.3573 30.1887 86.1053 30.5772C86.3846 30.7229 86.6226 30.8492 86.8168 30.9609C87.169 31.1576 87.2734 31.6117 87.0475 31.9469L85.3646 34.4215C85.1606 34.7226 84.7575 34.8124 84.4467 34.6255C84.267 34.5162 84.0533 34.3947 83.808 34.2612C83.2446 33.9503 82.5573 33.6711 81.7535 33.4209C80.9473 33.1708 80.0609 33.0445 79.0944 33.0445C77.6737 33.0445 76.5372 33.2947 75.6873 33.7973C74.8373 34.2976 74.4123 35.0116 74.4123 35.9344C74.4123 36.5682 74.6357 37.1292 75.0826 37.6149C75.5294 38.103 76.1827 38.5547 77.0399 38.9699C77.8971 39.3852 78.9341 39.8175 80.1507 40.2667C81.1901 40.6359 82.1955 41.0657 83.162 41.5538C84.1286 42.0419 84.9979 42.615 85.7677 43.2756C86.5376 43.9361 87.1495 44.7011 87.6037 45.5705C88.0578 46.4398 88.286 47.4428 88.286 48.5769C88.286 49.7765 88.0068 50.8426 87.4507 51.7727C86.8945 52.7028 86.1344 53.4848 85.1752 54.1162C84.216 54.75 83.1086 55.2235 81.8555 55.5417C80.6024 55.8574 79.2717 56.0176 77.8656 56.0176C75.9884 56.0176 74.3055 55.8161 72.8096 55.4154C71.3136 55.0123 70.1091 54.5873 69.1936 54.1405C68.8123 53.9535 68.4991 53.7956 68.2514 53.6645C67.8895 53.4726 67.7754 53.0112 68.0037 52.6712L69.8007 50.0194C70.0023 49.7231 70.3957 49.6284 70.7065 49.8057C70.8401 49.881 70.9906 49.9635 71.1631 50.0558C71.6463 50.3132 72.2437 50.5828 72.9553 50.8669C73.6668 51.151 74.4463 51.389 75.2963 51.5784C76.1462 51.7703 77.0181 51.865 77.9117 51.865C79.6116 51.865 80.8987 51.5396 81.7705 50.8863C82.6423 50.2331 83.0795 49.3928 83.0795 48.3632C83.0795 47.5715 82.8002 46.8867 82.2441 46.3063C81.688 45.7259 80.9254 45.1916 79.9589 44.7035C78.9924 44.2154 77.8632 43.7346 76.5736 43.2586C75.2841 42.7583 74.0869 42.1804 72.9795 41.5271C71.8722 40.8738 70.9834 40.0773 70.3082 39.1326C69.6331 38.1904 69.298 37.0393 69.298 35.6794C69.298 34.3195 69.723 33.1562 70.5729 32.1484C71.4229 31.1382 72.5546 30.3538 73.9704 29.7928C75.3837 29.2319 76.9258 28.9526 78.5965 28.9526L78.5868 28.9453Z" fill="#3D4798"/>
<path d="M96.9875 45.9751L87.825 30.4549C87.5554 29.9959 87.8857 29.418 88.4175 29.418H92.83C93.0801 29.418 93.3108 29.554 93.4323 29.775L98.9643 39.87C99.2241 40.346 99.9089 40.346 100.169 39.87L105.681 29.775C105.803 29.554 106.033 29.418 106.284 29.418H110.677C111.208 29.418 111.539 29.9959 111.269 30.4525L102.146 45.9751C102.082 46.0795 102.051 46.201 102.051 46.3224V54.8462C102.051 55.2251 101.742 55.5335 101.364 55.5335H97.7695C97.3906 55.5335 97.0822 55.2251 97.0822 54.8462V46.3224C97.0822 46.1985 97.0482 46.0795 96.9875 45.9727V45.9751Z" fill="#3D4798"/>
</g>
<defs>
<clipPath id="clip0_821_34167">
<rect width="126" height="126" fill="white"/>
</clipPath>
</defs>
</svg>
